# xmcd CD database file
#
# Track frame offsets:
#	150
#	18369
#	34156
#	53071
#	66773
#	83852
#	101989
#	118475
#	135480
#	154647
#	169722
#	200035
#	237648
#	254073
#	279648
#	305598
#	323707
#
# Disc length: 4521 seconds
#
# Revision: 1
# Processed by: cddbd v1.5.2PL0 Copyright (c) Steve Scherf et al.
# Submitted via: CDex 1.51
#
DISCID=fd11a711
DTITLE=New Life M 2010 - Pierwsza Mi³osc
DYEAR=2010
DGENRE=worship
TTITLE0=To Nasz Bog To Nasz Pan
TTITLE1=Modlitwa O Ducha Swietego
TTITLE2=Miloscia Jest Jezus Pan
TTITLE3=Soon O Very Soon
TTITLE4=Beams Of Heaven
TTITLE5=Tanczymy Dla Krola Chwal
TTITLE6=Stoisz U Naszych Drzwi
TTITLE7=Kocham Cie Boze
TTITLE8=Abba Ojcze
TTITLE9=Stawka Wieksza Niz
TTITLE10=Tanczymy Dla Krola Chwal
TTITLE11=Kazdy Wschod Slonca
TTITLE12=Stoisz U Naszych Drzwi
TTITLE13=Soon O Very Sooon
TTITLE14=A Ja W Panu
TTITLE15=To Nasz Bog To Nasz Pan
TTITLE16=Jestes Radoscia
EXTD=YEAR: 2010
EXTT0=
EXTT1=
EXTT2=
EXTT3=
EXTT4=
EXTT5=
EXTT6=
EXTT7=
EXTT8=
EXTT9=
EXTT10=
EXTT11=
EXTT12=
EXTT13=
EXTT14=
EXTT15=
EXTT16=
PLAYORDER=
